<mxfile host="app.diagrams.net" agent="Mozilla/5.0 (Windows NT 10.0; Win64; x64) AppleWebKit/537.36 (KHTML, like Gecko) Chrome/134.0.0.0 Safari/537.36" version="26.1.1">
  <diagram name="Page-1" id="yjlhKUAG4vObqB1oqQt4">
    <mxGraphModel dx="1366" dy="738" grid="1" gridSize="10" guides="1" tooltips="1" connect="1" arrows="1" fold="1" page="1" pageScale="1" pageWidth="850" pageHeight="1100" math="0" shadow="0">
      <root>
        <mxCell id="0" />
        <mxCell id="1" parent="0" />
        <mxCell id="cvTjw7ENn4lLmWNPbH3n-1" value="" style="dashed=0;outlineConnect=0;html=1;align=center;labelPosition=center;verticalLabelPosition=bottom;verticalAlign=top;shape=mxgraph.webicons.adobe_pdf;fillColor=#F40C0C;gradientColor=#610603" vertex="1" parent="1">
          <mxGeometry x="50" y="230" width="90" height="90" as="geometry" />
        </mxCell>
        <mxCell id="cvTjw7ENn4lLmWNPbH3n-2" value="" style="points=[];aspect=fixed;html=1;align=center;shadow=0;dashed=0;fillColor=#FF6A00;strokeColor=none;shape=mxgraph.alibaba_cloud.nlp-ke_keyword_extraction;" vertex="1" parent="1">
          <mxGeometry x="210" y="240" width="70" height="70" as="geometry" />
        </mxCell>
        <mxCell id="cvTjw7ENn4lLmWNPbH3n-3" value="" style="sketch=0;pointerEvents=1;shadow=0;dashed=0;html=1;strokeColor=none;labelPosition=center;verticalLabelPosition=bottom;verticalAlign=top;align=center;fillColor=#505050;shape=mxgraph.mscae.oms.track_changes" vertex="1" parent="1">
          <mxGeometry x="360" y="250" width="50" height="60" as="geometry" />
        </mxCell>
      </root>
    </mxGraphModel>
  </diagram>
</mxfile>
